<?xml version="1.0" encoding="iso-8859-1"?>
<!-- Generator: Adobe Illustrator 19.0.0, SVG Export Plug-In . SVG Version: 6.00 Build 0)  -->
<svg version="1.1" id="Capa_1" xmlns="http://www.w3.org/2000/svg" xmlns:xlink="http://www.w3.org/1999/xlink" x="0px" y="0px"
	 viewBox="0 0 512 512" style="enable-background:new 0 0 512 512;" xml:space="preserve">
<g>
	<g>
		<path d="M511.924,512l-42.857-75h3.009v-30h-20.152l-33.714-59h53.867v-30h-50.765l-27.302-12.351l-2.933-5.133V266.87
			L422.751,245h49.325v-30h-58.675l-22.325,15.415v-40.628l-7.956-7.956L412.975,147h59.101v-30h-72.899l-37.333,43.555
			l-10.768-10.768v-56l-13.662-13.662C370.389,68.427,394.076,36.935,394.076,0h-30c0,29.28-23,53.282-51.881,54.906L292.29,35
			h-11.213V15h-30v20h-30V15h-30v20h-11.213l-19.906,19.906C131.076,53.282,108.076,29.28,108.076,0h-30
			c0,36.935,23.687,68.427,56.662,80.125l-13.662,13.662v56l-10.768,10.768L72.975,117H0.076v30h59.101l29.855,34.831l-7.956,7.956
			v40.628L58.751,215H0.076v30h49.325l31.675,21.871v37.451L50.841,318H0.076v30h57.235l26.862-12.152
			c2.215,10.558,5.582,20.725,9.977,30.351L59.177,407H0.076v30h72.899l37.378-43.607c17.218,22.813,41.099,40.48,69.107,49.952
			L140.229,512H511.924z M460.229,482H191.924l134.152-234.767L460.229,482z M361.076,202.213v45.803l-35-61.249l-75,131.25V171
			h78.787L361.076,202.213z M151.076,106.213L192.29,65h87.573l41.213,41.213V141h-170V106.213z M111.076,306V202.213L142.29,171
			h78.787v199.517L194.7,416.675C145.672,402.855,111.076,357.859,111.076,306z"/>
	</g>
</g>
<g>
	<g>
		<rect x="311.08" y="431" width="30" height="30"/>
	</g>
</g>
<g>
	<g>
		<rect x="311.08" y="311" width="30" height="90"/>
	</g>
</g>
<g>
</g>
<g>
</g>
<g>
</g>
<g>
</g>
<g>
</g>
<g>
</g>
<g>
</g>
<g>
</g>
<g>
</g>
<g>
</g>
<g>
</g>
<g>
</g>
<g>
</g>
<g>
</g>
<g>
</g>
</svg>
