<?xml version="1.0" encoding="iso-8859-1"?>
<!-- Generator: Adobe Illustrator 19.0.0, SVG Export Plug-In . SVG Version: 6.00 Build 0)  -->
<svg version="1.1" id="Layer_1" xmlns="http://www.w3.org/2000/svg" xmlns:xlink="http://www.w3.org/1999/xlink" x="0px" y="0px"
	 viewBox="0 0 512 512" style="enable-background:new 0 0 512 512;" xml:space="preserve">
<polygon style="fill:#8E4238;" points="357.311,460.255 353.629,503.83 158.372,503.83 154.69,460.255 "/>
<path style="fill:#C67741;" d="M371.843,288.31l-14.532,171.945H154.69L140.158,288.31c11.406-4.031,14.794-14.075,31.613-14.075
	c21.057,0,21.057,15.741,42.115,15.741s21.057-15.741,42.115-15.741c21.057,0,21.057,15.741,42.115,15.741
	c21.057,0,21.057-15.741,42.115-15.741C357.05,274.236,360.438,284.28,371.843,288.31z"/>
<path style="fill:#F9EBDB;" d="M378.554,208.874l-6.71,79.436c-11.406-4.031-14.794-14.075-31.613-14.075
	c-21.057,0-21.057,15.741-42.115,15.741c-21.057,0-21.057-15.741-42.115-15.741s-21.057,15.741-42.115,15.741
	s-21.057-15.741-42.115-15.741c-16.82,0-20.208,10.044-31.613,14.075l-6.71-79.436H378.554z"/>
<rect x="117.107" y="176.193" style="fill:#E8D6BD;" width="277.787" height="32.681"/>
<path style="fill:#FFFFFF;" d="M338.694,176.193H171.128c0-22.561,18.29-40.851,40.851-40.851c0.97,0,1.928,0.044,2.876,0.109
	c3.747-18.704,20.251-32.79,40.056-32.79s36.308,14.085,40.056,32.79c0.948-0.065,1.906-0.109,2.876-0.109
	C320.404,135.342,338.694,153.633,338.694,176.193z"/>
<g>
	<path style="fill:#F9EBDB;" d="M254.911,62.638v40.023c-19.805,0-36.308,14.085-40.056,32.79c-0.948-0.065-1.906-0.109-2.876-0.109
		c-22.561,0-40.851,18.29-40.851,40.851h-38.77c0-51.353,31.591-95.319,76.386-113.555
		C208.744,62.638,254.911,62.638,254.911,62.638z"/>
	<path style="fill:#F9EBDB;" d="M377.464,176.193h-38.77c0-22.561-18.29-40.851-40.851-40.851c-0.97,0-1.928,0.044-2.876,0.109
		c-3.747-18.704-20.251-32.79-40.056-32.79V62.638h46.167C345.873,80.874,377.464,124.841,377.464,176.193z"/>
</g>
<g>
	<path style="fill:#700D00;" d="M171.768,282.403c7.812,0,11.316,2.62,16.165,6.245c5.659,4.232,12.704,9.498,25.949,9.498
		c13.244,0,20.289-5.266,25.949-9.498c4.849-3.625,8.352-6.245,16.164-6.245c7.813,0,11.317,2.62,16.167,6.245
		c5.66,4.232,12.705,9.498,25.951,9.498c13.247,0,20.29-5.266,25.952-9.498c4.85-3.625,8.354-6.245,16.167-6.245
		c4.512,0,8.17-3.658,8.17-8.17s-3.658-8.17-8.17-8.17c-13.247,0-20.29,5.266-25.952,9.498c-4.85,3.625-8.354,6.245-16.167,6.245
		s-11.317-2.62-16.167-6.245c-5.66-4.232-12.705-9.498-25.952-9.498c-13.246,0-20.289,5.266-25.95,9.498
		c-4.849,3.625-8.352,6.245-16.164,6.245c-7.812,0-11.315-2.62-16.164-6.245c-5.66-4.232-12.705-9.498-25.95-9.498
		c-4.512,0-8.17,3.658-8.17,8.17S167.256,282.403,171.768,282.403z"/>
	<path style="fill:#700D00;" d="M394.894,168.02h-9.51c-3.075-50.068-34.27-93.84-81.232-112.949
		c-0.978-0.398-2.024-0.602-3.08-0.602h-37.992V24.511c0-4.506,3.665-8.17,8.17-8.17h49.021c4.512,0,8.17-3.658,8.17-8.17
		S324.785,0,320.273,0h-49.021c-13.516,0-24.511,10.995-24.511,24.511v29.957h-37.991c-1.056,0-2.101,0.205-3.08,0.602
		c-46.96,19.11-78.156,62.881-81.232,112.949h-7.331c-4.512,0-8.17,3.658-8.17,8.17v32.681c0,4.512,3.658,8.17,8.17,8.17h8.831
		l20.624,244.043c0.001,0.009,3.67,43.433,3.67,43.433c0.357,4.231,3.896,7.483,8.141,7.483h195.254
		c4.245,0,7.783-3.252,8.141-7.483l24.294-287.476h8.831c4.512,0,8.17-3.658,8.17-8.17V176.19
		C403.064,171.678,399.406,168.02,394.894,168.02z M210.376,70.809h36.365v24.374c-17.498,2.971-32.203,15.309-38.095,32.099
		c-22.743,1.535-41.269,18.655-44.992,40.739h-22.84C143.828,125.153,170.412,87.701,210.376,70.809z M254.911,110.828
		c15.525,0,29,11.03,32.041,26.226c0.806,4.03,4.483,6.832,8.58,6.547c0.903-0.063,1.636-0.093,2.309-0.093
		c15.2,0,28.01,10.431,31.647,24.511H180.333c3.637-14.08,16.446-24.511,31.647-24.511c0.673,0,1.407,0.029,2.309,0.093
		c4.095,0.284,7.775-2.519,8.58-6.547C225.911,121.858,239.387,110.828,254.911,110.828z M346.119,495.66H165.882l-2.302-27.234
		h161.048c4.512,0,8.17-3.658,8.17-8.17c0-4.512-3.658-8.17-8.17-8.17H162.2l-19.863-235.044h227.328L346.119,495.66z
		 M386.724,200.701h-8.311c-0.014,0-253.136,0-253.136,0v-16.34h219.506c4.512,0,8.17-3.658,8.17-8.17
		c0-4.032-2.923-7.373-6.764-8.041c-3.671-22.146-22.227-39.33-45.015-40.868c-5.891-16.79-20.597-29.128-38.095-32.099V70.809
		h36.365c42.485,17.958,69.848,59.15,69.848,105.382c0,4.512,3.658,8.17,8.17,8.17h9.26v16.34H386.724z"/>
</g>
<g>
</g>
<g>
</g>
<g>
</g>
<g>
</g>
<g>
</g>
<g>
</g>
<g>
</g>
<g>
</g>
<g>
</g>
<g>
</g>
<g>
</g>
<g>
</g>
<g>
</g>
<g>
</g>
<g>
</g>
</svg>
