<?xml version="1.0" encoding="iso-8859-1"?>
<!-- Generator: Adobe Illustrator 19.0.0, SVG Export Plug-In . SVG Version: 6.00 Build 0)  -->
<svg version="1.1" id="Capa_1" xmlns="http://www.w3.org/2000/svg" xmlns:xlink="http://www.w3.org/1999/xlink" x="0px" y="0px"
	 viewBox="0 0 512 512" style="enable-background:new 0 0 512 512;" xml:space="preserve">
<radialGradient id="SVGID_1_" cx="254.8091" cy="255.3729" r="257.7802" gradientTransform="matrix(1.0039 0 0 -1.0039 0.1922 516.5618)" gradientUnits="userSpaceOnUse">
	<stop  offset="0" style="stop-color:#FFE7A5"/>
	<stop  offset="0.479" style="stop-color:#FFE6A3"/>
	<stop  offset="0.652" style="stop-color:#FFE29C"/>
	<stop  offset="0.775" style="stop-color:#FFDC91"/>
	<stop  offset="0.874" style="stop-color:#FFD380"/>
	<stop  offset="0.958" style="stop-color:#FFC76A"/>
	<stop  offset="1" style="stop-color:#FFBF5C"/>
</radialGradient>
<path style="fill:url(#SVGID_1_);" d="M256,12.562c-136.76,0-247.626,110.866-247.626,247.626S119.24,507.813,256,507.813
	s247.626-110.866,247.626-247.626S392.761,12.562,256,12.562z M256,347.795c-48.384,0-87.607-39.223-87.607-87.607
	s39.223-87.607,87.607-87.607s87.607,39.223,87.607,87.607S304.385,347.795,256,347.795z"/>
<radialGradient id="SVGID_2_" cx="254.8091" cy="255.3725" r="198.995" gradientTransform="matrix(1.0039 0 0 -1.0039 0.1922 516.5618)" gradientUnits="userSpaceOnUse">
	<stop  offset="0" style="stop-color:#FF5D00"/>
	<stop  offset="0.218" style="stop-color:#FF6D0F;stop-opacity:0.782"/>
	<stop  offset="0.643" style="stop-color:#FF9737;stop-opacity:0.357"/>
	<stop  offset="1" style="stop-color:#FFBF5C;stop-opacity:0"/>
</radialGradient>
<path style="fill:url(#SVGID_2_);" d="M256,60.412c-110.333,0-199.775,89.442-199.775,199.775S145.668,459.963,256,459.963
	s199.775-89.442,199.775-199.775S366.333,60.412,256,60.412z M256,347.795c-48.384,0-87.607-39.223-87.607-87.607
	s39.223-87.607,87.607-87.607s87.607,39.223,87.607,87.607S304.385,347.795,256,347.795z"/>
<linearGradient id="SVGID_3_" gradientUnits="userSpaceOnUse" x1="254.8088" y1="308.5135" x2="254.8088" y2="78.7435" gradientTransform="matrix(1.0039 0 0 -1.0039 0.1922 516.5618)">
	<stop  offset="0" style="stop-color:#654E48"/>
	<stop  offset="1" style="stop-color:#503837"/>
</linearGradient>
<path style="fill:url(#SVGID_3_);" d="M255.499,4.188C115.942,4.451-0.275,121.147,0,260.702
	c0.036,20.827,2.572,41.067,7.298,60.435c7.751,31.761,36.45,53.952,69.144,53.952c5.025,0,9.809-1.005,14.163-2.823
	c4.462-1.866,8.481-4.582,11.843-7.955c6.663-6.651,10.778-15.851,10.778-26.007c0-6.196,2.512-11.807,6.568-15.862
	c4.056-4.056,9.666-6.568,15.862-6.568c6.196,0,11.807,2.512,15.862,6.568c4.055,4.055,6.568,9.666,6.568,15.862v63.187
	c0,27.036,21.916,48.951,48.951,48.951h0.012c27.036,0,48.951-21.916,48.951-48.951v-0.898c0-13.099,10.61-23.71,23.71-23.71
	c6.556,0,12.477,2.655,16.772,6.938c4.283,4.295,6.938,10.228,6.938,16.772c0,7.476,3.027,14.248,7.931,19.14
	c4.893,4.904,11.664,7.931,19.14,7.931h3.278c14.953,0,27.072-12.118,27.072-27.072v-51.523c0-14.367,11.652-26.019,26.019-26.019
	c7.189,0,13.685,2.906,18.399,7.62c4.701,4.713,7.62,11.221,7.62,18.399v1.794c0,5.383,2.249,10.551,5.85,15.396
	c1.173,1.579,2.428,3.051,3.745,4.402c21.054,21.665,58.916,14.774,70.879-14.355c0.06-0.132,0.107-0.263,0.168-0.395
	C505.433,326.34,512,294.029,512,260.187C512,118.634,397.112,3.913,255.499,4.188z M256,347.79
	c-48.389,0-87.602-39.213-87.602-87.602s39.213-87.602,87.602-87.602s87.602,39.213,87.602,87.602S304.39,347.79,256,347.79z"/>
<radialGradient id="SVGID_4_" cx="254.8091" cy="260.1144" r="156.8996" gradientTransform="matrix(1.0039 0 0 -1.0039 0.1922 516.5618)" gradientUnits="userSpaceOnUse">
	<stop  offset="0" style="stop-color:#503837"/>
	<stop  offset="0.492" style="stop-color:#4D3634;stop-opacity:0.508"/>
	<stop  offset="0.873" style="stop-color:#43312C;stop-opacity:0.128"/>
	<stop  offset="1" style="stop-color:#3E2E28;stop-opacity:0"/>
</radialGradient>
<path style="fill:url(#SVGID_4_);" d="M256,60.412c-110.333,0-199.775,89.442-199.775,199.775
	c0,41.541,12.683,80.117,34.382,112.077c4.461-1.866,8.48-4.581,11.841-7.954c6.663-6.651,10.778-15.851,10.778-26.007
	c0-6.196,2.512-11.807,6.568-15.862c4.056-4.056,9.666-6.568,15.862-6.568c6.196,0,11.807,2.512,15.862,6.568
	c4.055,4.055,6.568,9.666,6.568,15.862v63.187c0,27.036,21.916,48.951,48.951,48.951h0.012c27.036,0,48.951-21.916,48.951-48.951
	v-0.898c0-13.099,10.61-23.71,23.71-23.71c6.556,0,12.477,2.655,16.772,6.938c4.283,4.295,6.938,10.228,6.938,16.772
	c0,7.476,3.027,14.248,7.931,19.14c4.893,4.904,11.664,7.931,19.14,7.931h3.278c14.953,0,27.072-12.118,27.072-27.072v-51.523
	c0-14.367,11.652-26.019,26.019-26.019c7.189,0,13.685,2.906,18.399,7.62c4.701,4.713,7.62,11.221,7.62,18.399v1.794
	c0,5.383,2.249,10.551,5.85,15.396c1.171,1.576,2.424,3.046,3.739,4.396c21.04-31.643,33.31-69.62,33.31-110.469
	C455.776,149.855,366.333,60.412,256,60.412z M256,347.795c-48.384,0-87.607-39.223-87.607-87.607s39.223-87.607,87.607-87.607
	s87.607,39.223,87.607,87.607S304.385,347.795,256,347.795z"/>
<linearGradient id="SVGID_5_" gradientUnits="userSpaceOnUse" x1="44.7319" y1="275.9013" x2="20.8979" y2="289.0113" gradientTransform="matrix(1.0039 0 0 -1.0039 0.1922 516.5618)">
	<stop  offset="0" style="stop-color:#3E2E28;stop-opacity:0"/>
	<stop  offset="1" style="stop-color:#503837"/>
</linearGradient>
<path style="fill:url(#SVGID_5_);" d="M35.26,208.606c-0.413-0.493-0.927-0.913-1.54-1.216c-2.368-1.172-5.239-0.202-6.411,2.166
	L14.575,235.29c-0.948,1.915-0.477,4.144,0.985,5.553l17.886,17.886c0.413,0.492,0.927,0.913,1.539,1.216
	c2.368,1.172,5.238,0.202,6.411-2.166l12.734-25.733c0.948-1.915,0.477-4.145-0.985-5.553L35.26,208.606z"/>
<linearGradient id="SVGID_6_" gradientUnits="userSpaceOnUse" x1="124.1995" y1="230.6238" x2="106.5895" y2="248.2338" gradientTransform="matrix(1.0039 0 0 -1.0039 0.1922 516.5618)">
	<stop  offset="0" style="stop-color:#3E2E28;stop-opacity:0"/>
	<stop  offset="1" style="stop-color:#503837"/>
</linearGradient>
<path style="fill:url(#SVGID_6_);" d="M100.885,248.172c-1.434-1.462-3.692-1.905-5.605-0.914c-2.346,1.217-3.261,4.105-2.044,6.451
	l13.221,25.486c0.307,0.591,0.721,1.09,1.204,1.489l17.885,17.885c1.434,1.462,3.692,1.905,5.605,0.914
	c2.346-1.217,3.261-4.105,2.044-6.451l-13.22-25.486c-0.306-0.591-0.72-1.09-1.204-1.489L100.885,248.172z"/>
<linearGradient id="SVGID_7_" gradientUnits="userSpaceOnUse" x1="96.5166" y1="304.2209" x2="74.3866" y2="326.351" gradientTransform="matrix(1.0039 0 0 -1.0039 0.1922 516.5618)">
	<stop  offset="0" style="stop-color:#3E2E28;stop-opacity:0"/>
	<stop  offset="1" style="stop-color:#503837"/>
</linearGradient>
<path style="fill:url(#SVGID_7_);" d="M88.394,178.491c-0.638-0.735-1.497-1.29-2.517-1.527c-2.574-0.597-5.146,1.005-5.743,3.579
	l-6.494,27.966c-0.402,1.731,0.206,3.444,1.42,4.574l17.885,17.885c0.638,0.735,1.497,1.29,2.517,1.527
	c2.574,0.598,5.146-1.005,5.743-3.579l6.494-27.966c0.402-1.731-0.206-3.444-1.42-4.574L88.394,178.491z"/>
<linearGradient id="SVGID_8_" gradientUnits="userSpaceOnUse" x1="68.2418" y1="222.5744" x2="61.0918" y2="241.8344" gradientTransform="matrix(1.0039 0 0 -1.0039 0.1922 516.5618)">
	<stop  offset="0" style="stop-color:#3E2E28;stop-opacity:0"/>
	<stop  offset="1" style="stop-color:#503837"/>
</linearGradient>
<path style="fill:url(#SVGID_8_);" d="M69.563,273.336c-0.278-0.306-0.584-0.592-0.95-0.826l-24.186-15.468
	c-2.226-1.424-5.185-0.773-6.609,1.453c-1.285,2.01-0.867,4.605,0.861,6.141l17.885,17.885c0.278,0.306,0.584,0.592,0.95,0.826
	l24.186,15.468c2.226,1.424,5.185,0.773,6.609-1.453c1.285-2.01,0.867-4.605-0.861-6.141L69.563,273.336z"/>
<linearGradient id="SVGID_9_" gradientUnits="userSpaceOnUse" x1="149.7028" y1="283.9951" x2="142.3528" y2="301.075" gradientTransform="matrix(1.0039 0 0 -1.0039 0.1922 516.5618)">
	<stop  offset="0" style="stop-color:#3E2E28;stop-opacity:0"/>
	<stop  offset="1" style="stop-color:#503837"/>
</linearGradient>
<path style="fill:url(#SVGID_9_);" d="M154.074,204.288c-1.391-1.461-3.601-1.95-5.519-1.03l-25.888,12.412
	c-2.383,1.142-3.388,4.001-2.246,6.384c0.3,0.626,0.725,1.151,1.223,1.574l17.885,17.885c1.391,1.461,3.601,1.95,5.519,1.03
	l25.888-12.412c2.383-1.142,3.388-4.001,2.246-6.384c-0.3-0.626-0.725-1.152-1.223-1.573L154.074,204.288z"/>
<path style="fill:#7ECCFD;" d="M16.743,241.7c-2.368-1.172-3.338-4.043-2.166-6.411l12.734-25.733
	c1.172-2.368,4.043-3.338,6.411-2.166s3.338,4.043,2.166,6.411l-12.734,25.733C21.981,241.901,19.111,242.872,16.743,241.7z"/>
<path style="fill:#E2EDF2;" d="M112.907,281.239c-2.346,1.217-5.234,0.301-6.451-2.044L93.235,253.71
	c-1.217-2.346-0.301-5.234,2.044-6.451c2.346-1.217,5.234-0.301,6.451,2.044l13.221,25.486
	C116.168,277.134,115.253,280.022,112.907,281.239z"/>
<path style="fill:#FF7BAC;" d="M77.218,214.252c-2.574-0.597-4.176-3.169-3.579-5.743l6.494-27.966
	c0.597-2.574,3.169-4.176,5.743-3.579s4.176,3.169,3.579,5.743l-6.494,27.966C82.363,213.247,79.792,214.85,77.218,214.252z"/>
<path style="fill:#FFE7A5;" d="M37.817,258.494c1.424-2.226,4.383-2.877,6.609-1.453l24.186,15.468
	c2.226,1.424,2.877,4.383,1.453,6.609c-1.424,2.226-4.383,2.877-6.609,1.453L39.27,265.103
	C37.044,263.679,36.394,260.721,37.817,258.494z"/>
<path style="fill:#9EB644;" d="M154.939,205.504c1.142,2.382,0.137,5.241-2.246,6.384l-25.888,12.412
	c-2.382,1.142-5.241,0.137-6.384-2.246c-1.142-2.382-0.137-5.241,2.246-6.384l25.888-12.412
	C150.938,202.116,153.796,203.121,154.939,205.504z"/>
<linearGradient id="SVGID_10_" gradientUnits="userSpaceOnUse" x1="137.6791" y1="399.8235" x2="113.8491" y2="412.9335" gradientTransform="matrix(1.0039 0 0 -1.0039 0.1922 516.5618)">
	<stop  offset="0" style="stop-color:#3E2E28;stop-opacity:0"/>
	<stop  offset="1" style="stop-color:#503837"/>
</linearGradient>
<path style="fill:url(#SVGID_10_);" d="M128.569,84.195c-0.413-0.493-0.927-0.913-1.54-1.216c-2.368-1.172-5.238-0.202-6.411,2.166
	l-12.734,25.733c-0.948,1.915-0.477,4.144,0.985,5.553l17.886,17.886c0.413,0.492,0.927,0.913,1.539,1.216
	c2.368,1.172,5.238,0.202,6.411-2.166l12.734-25.732c0.948-1.915,0.477-4.145-0.985-5.553L128.569,84.195z"/>
<linearGradient id="SVGID_11_" gradientUnits="userSpaceOnUse" x1="217.1487" y1="354.5431" x2="199.5387" y2="372.1531" gradientTransform="matrix(1.0039 0 0 -1.0039 0.1922 516.5618)">
	<stop  offset="0" style="stop-color:#3E2E28;stop-opacity:0"/>
	<stop  offset="1" style="stop-color:#503837"/>
</linearGradient>
<path style="fill:url(#SVGID_11_);" d="M194.193,123.761c-1.434-1.462-3.692-1.905-5.605-0.914
	c-2.346,1.217-3.261,4.105-2.044,6.451l13.221,25.486c0.307,0.591,0.721,1.09,1.204,1.489l17.885,17.885
	c1.434,1.462,3.692,1.905,5.605,0.914c2.346-1.217,3.261-4.105,2.044-6.451l-13.221-25.486c-0.306-0.591-0.72-1.09-1.204-1.489
	L194.193,123.761z"/>
<linearGradient id="SVGID_12_" gradientUnits="userSpaceOnUse" x1="189.4611" y1="428.1454" x2="167.3311" y2="450.2755" gradientTransform="matrix(1.0039 0 0 -1.0039 0.1922 516.5618)">
	<stop  offset="0" style="stop-color:#3E2E28;stop-opacity:0"/>
	<stop  offset="1" style="stop-color:#503837"/>
</linearGradient>
<path style="fill:url(#SVGID_12_);" d="M181.702,54.08c-0.638-0.735-1.497-1.29-2.517-1.527c-2.574-0.597-5.146,1.005-5.743,3.579
	l-6.494,27.966c-0.402,1.731,0.206,3.444,1.42,4.574l17.885,17.885c0.639,0.735,1.497,1.29,2.517,1.527
	c2.574,0.598,5.146-1.005,5.743-3.579l6.494-27.966c0.402-1.731-0.206-3.444-1.42-4.574L181.702,54.08z"/>
<linearGradient id="SVGID_13_" gradientUnits="userSpaceOnUse" x1="161.1768" y1="346.5026" x2="154.0368" y2="365.7626" gradientTransform="matrix(1.0039 0 0 -1.0039 0.1922 516.5618)">
	<stop  offset="0" style="stop-color:#3E2E28;stop-opacity:0"/>
	<stop  offset="1" style="stop-color:#503837"/>
</linearGradient>
<path style="fill:url(#SVGID_13_);" d="M162.872,148.925c-0.278-0.306-0.584-0.592-0.95-0.826l-24.186-15.468
	c-2.226-1.424-5.185-0.773-6.609,1.453c-1.285,2.01-0.867,4.605,0.861,6.141l17.885,17.885c0.278,0.306,0.584,0.592,0.95,0.826
	l24.186,15.468c2.226,1.424,5.185,0.773,6.609-1.453c1.285-2.01,0.867-4.605-0.861-6.141L162.872,148.925z"/>
<linearGradient id="SVGID_14_" gradientUnits="userSpaceOnUse" x1="242.6459" y1="407.9221" x2="235.2959" y2="425.0021" gradientTransform="matrix(1.0039 0 0 -1.0039 0.1922 516.5618)">
	<stop  offset="0" style="stop-color:#3E2E28;stop-opacity:0"/>
	<stop  offset="1" style="stop-color:#503837"/>
</linearGradient>
<path style="fill:url(#SVGID_14_);" d="M247.383,79.877c-1.391-1.461-3.601-1.95-5.519-1.03L215.976,91.26
	c-2.383,1.142-3.388,4.001-2.246,6.384c0.3,0.626,0.725,1.151,1.223,1.574l17.885,17.885c1.391,1.461,3.601,1.95,5.519,1.03
	l25.888-12.412c2.383-1.142,3.388-4.001,2.246-6.384c-0.3-0.626-0.725-1.151-1.223-1.573L247.383,79.877z"/>
<path style="fill:#7ECCFD;" d="M110.051,117.289c-2.368-1.172-3.338-4.043-2.166-6.411l12.734-25.733
	c1.172-2.368,4.043-3.338,6.411-2.166c2.368,1.172,3.338,4.043,2.166,6.411l-12.734,25.733
	C115.29,117.49,112.42,118.461,110.051,117.289z"/>
<path style="fill:#E2EDF2;" d="M206.215,156.828c-2.346,1.217-5.234,0.301-6.451-2.044l-13.221-25.486
	c-1.217-2.346-0.301-5.234,2.044-6.451c2.346-1.217,5.234-0.301,6.451,2.044l13.221,25.486
	C209.477,152.723,208.561,155.611,206.215,156.828z"/>
<path style="fill:#FF7BAC;" d="M170.527,89.841c-2.574-0.597-4.176-3.169-3.579-5.743l6.494-27.966
	c0.597-2.574,3.169-4.176,5.743-3.579c2.574,0.597,4.176,3.169,3.579,5.743l-6.494,27.966
	C175.672,88.836,173.101,90.439,170.527,89.841z"/>
<path style="fill:#FFE7A5;" d="M131.126,134.083c1.424-2.226,4.383-2.877,6.609-1.453l24.186,15.468
	c2.226,1.424,2.877,4.383,1.453,6.609c-1.424,2.226-4.383,2.877-6.609,1.453l-24.186-15.468
	C130.353,139.268,129.702,136.31,131.126,134.083z"/>
<path style="fill:#9EB644;" d="M248.247,81.093c1.142,2.382,0.137,5.241-2.246,6.384L220.113,99.89
	c-2.382,1.142-5.241,0.137-6.384-2.246c-1.142-2.382-0.137-5.241,2.246-6.384l25.888-12.412
	C244.247,77.704,247.105,78.71,248.247,81.093z"/>
<linearGradient id="SVGID_15_" gradientUnits="userSpaceOnUse" x1="300.9287" y1="398.6328" x2="277.0887" y2="411.7428" gradientTransform="matrix(1.0039 0 0 -1.0039 0.1922 516.5618)">
	<stop  offset="0" style="stop-color:#3E2E28;stop-opacity:0"/>
	<stop  offset="1" style="stop-color:#503837"/>
</linearGradient>
<path style="fill:url(#SVGID_15_);" d="M292.456,85.392c-0.413-0.493-0.927-0.913-1.54-1.216c-2.368-1.172-5.239-0.202-6.411,2.166
	l-12.734,25.733c-0.948,1.915-0.477,4.144,0.985,5.553l17.886,17.886c0.413,0.492,0.927,0.913,1.54,1.216
	c2.368,1.172,5.238,0.202,6.411-2.166l12.734-25.732c0.948-1.915,0.477-4.145-0.985-5.553L292.456,85.392z"/>
<linearGradient id="SVGID_16_" gradientUnits="userSpaceOnUse" x1="380.3962" y1="353.3506" x2="362.7862" y2="370.9606" gradientTransform="matrix(1.0039 0 0 -1.0039 0.1922 516.5618)">
	<stop  offset="0" style="stop-color:#3E2E28;stop-opacity:0"/>
	<stop  offset="1" style="stop-color:#503837"/>
</linearGradient>
<path style="fill:url(#SVGID_16_);" d="M358.08,124.958c-1.434-1.462-3.692-1.905-5.605-0.914c-2.346,1.217-3.261,4.105-2.044,6.451
	l13.221,25.486c0.307,0.591,0.721,1.09,1.204,1.489l17.885,17.885c1.434,1.462,3.692,1.905,5.605,0.914
	c2.346-1.217,3.261-4.105,2.044-6.451l-13.221-25.486c-0.306-0.591-0.72-1.09-1.204-1.489L358.08,124.958z"/>
<linearGradient id="SVGID_17_" gradientUnits="userSpaceOnUse" x1="352.7091" y1="426.9535" x2="330.5791" y2="449.0834" gradientTransform="matrix(1.0039 0 0 -1.0039 0.1922 516.5618)">
	<stop  offset="0" style="stop-color:#3E2E28;stop-opacity:0"/>
	<stop  offset="1" style="stop-color:#503837"/>
</linearGradient>
<path style="fill:url(#SVGID_17_);" d="M345.59,55.276c-0.638-0.735-1.497-1.29-2.517-1.527c-2.574-0.597-5.146,1.005-5.743,3.579
	l-6.494,27.966c-0.402,1.731,0.206,3.444,1.42,4.574l17.885,17.885c0.638,0.735,1.497,1.29,2.517,1.527
	c2.574,0.597,5.146-1.005,5.743-3.579l6.494-27.966c0.402-1.731-0.206-3.444-1.42-4.574L345.59,55.276z"/>
<linearGradient id="SVGID_18_" gradientUnits="userSpaceOnUse" x1="324.431" y1="345.3042" x2="317.281" y2="364.5742" gradientTransform="matrix(1.0039 0 0 -1.0039 0.1922 516.5618)">
	<stop  offset="0" style="stop-color:#3E2E28;stop-opacity:0"/>
	<stop  offset="1" style="stop-color:#503837"/>
</linearGradient>
<path style="fill:url(#SVGID_18_);" d="M326.759,150.122c-0.278-0.306-0.584-0.592-0.95-0.826l-24.186-15.468
	c-2.226-1.424-5.185-0.773-6.609,1.453c-1.285,2.01-0.867,4.605,0.861,6.141l17.885,17.885c0.278,0.306,0.584,0.592,0.95,0.826
	l24.186,15.468c2.226,1.424,5.185,0.773,6.609-1.453c1.285-2.01,0.867-4.605-0.861-6.141L326.759,150.122z"/>
<linearGradient id="SVGID_19_" gradientUnits="userSpaceOnUse" x1="405.8872" y1="406.7327" x2="398.5472" y2="423.8127" gradientTransform="matrix(1.0039 0 0 -1.0039 0.1922 516.5618)">
	<stop  offset="0" style="stop-color:#3E2E28;stop-opacity:0"/>
	<stop  offset="1" style="stop-color:#503837"/>
</linearGradient>
<path style="fill:url(#SVGID_19_);" d="M411.27,81.073c-1.391-1.461-3.601-1.95-5.519-1.03l-25.888,12.412
	c-2.383,1.142-3.388,4.001-2.246,6.384c0.3,0.626,0.725,1.152,1.223,1.574l17.885,17.885c1.391,1.461,3.601,1.95,5.519,1.03
	l25.888-12.412c2.383-1.142,3.388-4.001,2.246-6.384c-0.3-0.626-0.725-1.152-1.223-1.573L411.27,81.073z"/>
<path style="fill:#7ECCFD;" d="M273.939,118.485c-2.368-1.172-3.338-4.043-2.166-6.411l12.734-25.733
	c1.172-2.368,4.043-3.338,6.411-2.166c2.368,1.172,3.338,4.043,2.166,6.411l-12.734,25.733
	C279.178,118.687,276.307,119.657,273.939,118.485z"/>
<path style="fill:#E2EDF2;" d="M370.103,158.025c-2.346,1.217-5.234,0.301-6.451-2.044l-13.221-25.486
	c-1.217-2.346-0.301-5.234,2.044-6.451c2.346-1.217,5.234-0.301,6.451,2.044l13.221,25.486
	C373.364,153.919,372.448,156.808,370.103,158.025z"/>
<path style="fill:#FF7BAC;" d="M334.414,91.037c-2.574-0.597-4.176-3.169-3.579-5.743l6.494-27.966
	c0.597-2.574,3.169-4.176,5.743-3.579c2.574,0.597,4.176,3.169,3.579,5.743l-6.494,27.966
	C339.56,90.032,336.988,91.634,334.414,91.037z"/>
<path style="fill:#FFE7A5;" d="M295.013,135.28c1.424-2.226,4.383-2.877,6.609-1.453l24.186,15.468
	c2.226,1.424,2.877,4.383,1.453,6.609s-4.383,2.877-6.609,1.453l-24.186-15.468C294.24,140.465,293.589,137.506,295.013,135.28z"/>
<path style="fill:#9EB644;" d="M412.135,82.289c1.142,2.382,0.137,5.241-2.246,6.384l-25.889,12.412
	c-2.383,1.142-5.241,0.137-6.384-2.246c-1.142-2.382-0.137-5.241,2.246-6.384l25.888-12.412
	C408.135,78.901,410.993,79.907,412.135,82.289z"/>
<linearGradient id="SVGID_20_" gradientUnits="userSpaceOnUse" x1="377.1878" y1="281.8612" x2="353.3578" y2="294.9612" gradientTransform="matrix(1.0039 0 0 -1.0039 0.1922 516.5618)">
	<stop  offset="0" style="stop-color:#3E2E28;stop-opacity:0"/>
	<stop  offset="1" style="stop-color:#503837"/>
</linearGradient>
<path style="fill:url(#SVGID_20_);" d="M369.017,202.625c-0.413-0.493-0.927-0.913-1.54-1.216c-2.368-1.172-5.239-0.202-6.411,2.166
	l-12.734,25.733c-0.948,1.915-0.477,4.144,0.985,5.553l17.886,17.886c0.413,0.492,0.927,0.913,1.539,1.216
	c2.368,1.172,5.238,0.202,6.411-2.166l12.734-25.733c0.948-1.915,0.477-4.145-0.985-5.553L369.017,202.625z"/>
<linearGradient id="SVGID_21_" gradientUnits="userSpaceOnUse" x1="456.6597" y1="236.5741" x2="439.0497" y2="254.1841" gradientTransform="matrix(1.0039 0 0 -1.0039 0.1922 516.5618)">
	<stop  offset="0" style="stop-color:#3E2E28;stop-opacity:0"/>
	<stop  offset="1" style="stop-color:#503837"/>
</linearGradient>
<path style="fill:url(#SVGID_21_);" d="M434.641,242.191c-1.434-1.462-3.692-1.905-5.605-0.914
	c-2.346,1.217-3.261,4.105-2.044,6.451l13.221,25.486c0.307,0.591,0.721,1.09,1.204,1.489l17.885,17.885
	c1.434,1.462,3.692,1.905,5.605,0.914c2.346-1.217,3.261-4.105,2.044-6.451l-13.221-25.486c-0.306-0.591-0.72-1.09-1.204-1.489
	L434.641,242.191z"/>
<linearGradient id="SVGID_22_" gradientUnits="userSpaceOnUse" x1="428.9706" y1="310.175" x2="406.8406" y2="332.315" gradientTransform="matrix(1.0039 0 0 -1.0039 0.1922 516.5618)">
	<stop  offset="0" style="stop-color:#3E2E28;stop-opacity:0"/>
	<stop  offset="1" style="stop-color:#503837"/>
</linearGradient>
<path style="fill:url(#SVGID_22_);" d="M422.151,172.509c-0.638-0.735-1.497-1.29-2.517-1.527c-2.574-0.597-5.146,1.005-5.743,3.579
	l-6.494,27.966c-0.402,1.731,0.206,3.444,1.42,4.574l17.885,17.885c0.638,0.735,1.497,1.29,2.517,1.527
	c2.574,0.598,5.146-1.005,5.743-3.579l6.494-27.966c0.402-1.731-0.206-3.444-1.42-4.574L422.151,172.509z"/>
<linearGradient id="SVGID_23_" gradientUnits="userSpaceOnUse" x1="400.6937" y1="228.5352" x2="393.5437" y2="247.7952" gradientTransform="matrix(1.0039 0 0 -1.0039 0.1922 516.5618)">
	<stop  offset="0" style="stop-color:#3E2E28;stop-opacity:0"/>
	<stop  offset="1" style="stop-color:#503837"/>
</linearGradient>
<path style="fill:url(#SVGID_23_);" d="M403.32,267.355c-0.278-0.306-0.584-0.592-0.95-0.826l-24.186-15.468
	c-2.226-1.424-5.185-0.773-6.609,1.453c-1.285,2.01-0.867,4.605,0.861,6.141l17.885,17.885c0.278,0.306,0.584,0.592,0.95,0.826
	l24.186,15.468c2.226,1.424,5.185,0.773,6.609-1.453c1.285-2.01,0.867-4.605-0.861-6.141L403.32,267.355z"/>
<linearGradient id="SVGID_24_" gradientUnits="userSpaceOnUse" x1="482.1504" y1="289.954" x2="474.8104" y2="307.034" gradientTransform="matrix(1.0039 0 0 -1.0039 0.1922 516.5618)">
	<stop  offset="0" style="stop-color:#3E2E28;stop-opacity:0"/>
	<stop  offset="1" style="stop-color:#503837"/>
</linearGradient>
<path style="fill:url(#SVGID_24_);" d="M487.831,198.307c-1.391-1.461-3.601-1.95-5.519-1.03l-25.888,12.412
	c-2.383,1.142-3.388,4.001-2.246,6.384c0.3,0.626,0.725,1.152,1.223,1.574l17.885,17.885c1.391,1.461,3.601,1.95,5.519,1.03
	l25.888-12.412c2.383-1.142,3.388-4.001,2.246-6.384c-0.3-0.626-0.725-1.152-1.223-1.573L487.831,198.307z"/>
<path style="fill:#7ECCFD;" d="M350.5,235.718c-2.368-1.172-3.338-4.043-2.166-6.411l12.734-25.733
	c1.172-2.368,4.043-3.338,6.411-2.166c2.368,1.172,3.338,4.043,2.166,6.411l-12.734,25.733
	C355.738,235.921,352.868,236.891,350.5,235.718z"/>
<path style="fill:#E2EDF2;" d="M446.663,275.258c-2.346,1.217-5.234,0.301-6.451-2.044l-13.221-25.486
	c-1.217-2.346-0.301-5.234,2.044-6.451c2.346-1.217,5.234-0.301,6.451,2.044l13.221,25.486
	C449.925,271.153,449.009,274.041,446.663,275.258z"/>
<path style="fill:#FF7BAC;" d="M410.975,208.271c-2.574-0.597-4.176-3.169-3.579-5.743l6.494-27.966
	c0.597-2.574,3.169-4.176,5.743-3.579c2.574,0.597,4.176,3.169,3.579,5.743l-6.494,27.966
	C416.12,207.266,413.549,208.868,410.975,208.271z"/>
<path style="fill:#FFE7A5;" d="M371.574,252.513c1.424-2.226,4.383-2.877,6.609-1.453l24.186,15.468
	c2.226,1.424,2.877,4.383,1.453,6.609c-1.424,2.226-4.383,2.877-6.609,1.453l-24.186-15.468
	C370.801,257.699,370.15,254.74,371.574,252.513z"/>
<path style="fill:#9EB644;" d="M488.695,199.523c1.142,2.382,0.137,5.241-2.246,6.384l-25.888,12.412
	c-2.382,1.142-5.241,0.137-6.384-2.246c-1.142-2.382-0.137-5.241,2.246-6.384l25.888-12.412
	C484.695,196.135,487.553,197.14,488.695,199.523z"/>
<g>
</g>
<g>
</g>
<g>
</g>
<g>
</g>
<g>
</g>
<g>
</g>
<g>
</g>
<g>
</g>
<g>
</g>
<g>
</g>
<g>
</g>
<g>
</g>
<g>
</g>
<g>
</g>
<g>
</g>
</svg>
