<svg id="Capa_1" enable-background="new 0 0 512 512" height="512" viewBox="0 0 512 512" width="512" xmlns="http://www.w3.org/2000/svg"><g><path d="m353.971 24.697-53.526 50.818c-3.254 3.09-7.571 4.812-12.058 4.812h-111.825c-9.103 0-16.483 7.38-16.483 16.483 0 9.103 7.38 16.483 16.483 16.483h125.7c4.84 0 9.465-2.003 12.776-5.534l46.651-49.755c1.947-2.077 4.668-3.255 7.515-3.255h136.614c3.414 0 6.181-2.767 6.181-6.181v-23.352c0-3.414-2.767-6.181-6.181-6.181h-137.661c-5.279 0-10.357 2.027-14.186 5.662z" fill="#c8effe"/><path d="m505.819 19.035h-32.122c3.414 0 6.181 2.767 6.181 6.181v13.73c0 2.276-1.845 4.121-4.121 4.121h-112.393c-2.847 0-5.568 1.178-7.515 3.255l-46.651 49.755c-3.311 3.531-7.935 5.534-12.776 5.534h-125.7c-4.036 0-7.729-1.456-10.595-3.864.489 8.664 7.649 15.545 16.436 15.545h125.7c4.84 0 9.465-2.003 12.776-5.534l46.651-49.755c1.948-2.077 4.668-3.255 7.515-3.255h104.492 32.122c3.414 0 6.181-2.767 6.181-6.181v-23.351c0-3.469-2.853-6.181-6.181-6.181z" fill="#99e6fc"/><path d="m211.928 230.05h-32.966v-163.455c0-9.103 7.38-16.483 16.483-16.483 9.103 0 16.483 7.38 16.483 16.483z" fill="#fec165"/><path d="m228.411 147.608c-9.103 0-16.483-7.38-16.483-16.483v-64.53c0-9.103 7.38-16.483 16.483-16.483 9.103 0 16.483 7.38 16.483 16.483v64.53c0 9.103-7.38 16.483-16.483 16.483z" fill="#fdb441"/><path d="m178.962 230.05h-32.966v-163.455c0-9.103 7.38-16.483 16.483-16.483 9.103 0 16.483 7.38 16.483 16.483z" fill="#fdb441"/><path d="m261.377 147.608c-9.103 0-16.483-7.38-16.483-16.483v-64.53c0-9.103 7.38-16.483 16.483-16.483 9.103 0 16.483 7.38 16.483 16.483v64.53c-.001 9.103-7.38 16.483-16.483 16.483z" fill="#fec165"/><path d="m195.445 50.112c-3.223 0-6.221.939-8.761 2.538 4.634 2.918 7.722 8.064 7.722 13.944v163.456h17.521v-163.455c.001-9.103-7.379-16.483-16.482-16.483z" fill="#fdb441"/><path d="m228.411 50.112c-3.223 0-6.221.939-8.761 2.538 4.634 2.918 7.722 8.064 7.722 13.944v64.53c0 5.88-3.089 11.027-7.722 13.944 2.54 1.599 5.537 2.538 8.761 2.538 9.103 0 16.483-7.38 16.483-16.483v-64.53c0-9.101-7.38-16.481-16.483-16.481z" fill="#fea613"/><path d="m162.479 50.112c-3.223 0-6.221.939-8.761 2.538 4.634 2.918 7.722 8.064 7.722 13.944v163.456h17.521v-163.455c.001-9.103-7.378-16.483-16.482-16.483z" fill="#fea613"/><path d="m261.377 50.112c-3.223 0-6.221.939-8.761 2.538 4.634 2.918 7.722 8.064 7.722 13.944v64.53c0 5.88-3.089 11.027-7.722 13.944 2.54 1.599 5.537 2.538 8.761 2.538 9.103 0 16.483-7.38 16.483-16.483v-64.53c-.001-9.101-7.38-16.481-16.483-16.481z" fill="#fdb441"/><path d="m19.533 418.023 6.364 51.446c1.66 13.419 13.061 23.496 26.582 23.496h406.813c13.521 0 24.922-10.077 26.582-23.496l6.364-51.446z" fill="#c8effe"/><path d="m463.037 418.023-6.364 51.446c-1.66 13.419-13.061 23.496-26.582 23.496h29.202c13.521 0 24.922-10.077 26.582-23.496l6.364-51.446z" fill="#99e6fc"/><circle cx="352.489" cy="218.148" fill="#dc8758" r="31.128"/><path d="m352.489 187.02c-5.278 0-10.246 1.318-14.601 3.636 9.831 5.232 16.527 15.578 16.527 27.492s-6.696 22.26-16.527 27.492c4.355 2.318 9.323 3.636 14.601 3.636 17.192 0 31.128-13.936 31.128-31.128s-13.936-31.128-31.128-31.128z" fill="#d77f4a"/><path d="m402.454 366.093h-304.712v-7.179c0-80.308 65.103-145.411 145.411-145.411h13.89c80.308 0 145.411 65.103 145.411 145.411z" fill="#fdb441"/><g><path d="m330.343 342.916c-3.573 0-6.782-2.493-7.551-6.129-6.754-31.93-35.356-55.105-68.01-55.105h-9.368c-32.654 0-61.257 23.175-68.01 55.105-.883 4.176-4.987 6.843-9.158 5.96-4.175-.883-6.843-4.983-5.961-9.158 8.256-39.031 43.216-67.36 83.129-67.36h9.368c39.912 0 74.873 28.329 83.129 67.36.882 4.175-1.786 8.275-5.961 9.158-.539.114-1.077.169-1.607.169z" fill="#fe9901"/></g><path d="m492.239 430.802h-304.712v-7.179c0-80.308 65.103-145.411 145.411-145.411h13.89c80.308 0 145.411 65.103 145.411 145.411z" fill="#fec165"/><g><path d="m458.854 407.624c-3.573 0-6.782-2.493-7.551-6.129-10.374-49.05-54.313-84.651-104.475-84.651h-13.889c-50.162 0-94.101 35.601-104.475 84.651-.884 4.175-4.986 6.841-9.158 5.961-4.175-.883-6.843-4.983-5.961-9.158 5.708-26.989 20.679-51.56 42.155-69.186 21.781-17.876 49.282-27.721 77.439-27.721h13.889c28.157 0 55.658 9.845 77.439 27.721 21.476 17.626 36.447 42.197 42.155 69.186.882 4.175-1.786 8.275-5.961 9.158-.538.114-1.077.168-1.607.168z" fill="#fea613"/></g><path d="m260.972 430.802h-241.439v-5.688c0-63.632 51.584-115.216 115.216-115.216h11.006c63.632 0 115.216 51.584 115.216 115.216v5.688z" fill="#fece85"/><g><path d="m226.213 407.625c-3.286 0-6.333-2.113-7.369-5.413-10.083-32.109-39.456-53.683-73.089-53.683h-11.005c-33.633 0-63.005 21.573-73.089 53.683-1.278 4.071-5.61 6.336-9.686 5.056-4.071-1.278-6.335-5.615-5.056-9.686 5.743-18.29 17.415-34.716 32.866-46.253 15.992-11.941 34.999-18.253 54.965-18.253h11.006c19.966 0 38.973 6.312 54.965 18.253 15.451 11.537 27.123 27.963 32.866 46.253 1.279 4.071-.985 8.408-5.056 9.686-.771.242-1.551.357-2.318.357z" fill="#fdb441"/></g><g><path d="m183.232 407.625c-3.286 0-6.333-2.113-7.369-5.413-4.534-14.436-17.739-24.136-32.859-24.136h-5.503c-15.12 0-28.325 9.7-32.859 24.136-1.278 4.071-5.611 6.336-9.686 5.056-4.071-1.279-6.335-5.615-5.056-9.686 6.566-20.91 25.696-34.959 47.602-34.959h5.503c21.905 0 41.035 14.049 47.602 34.959 1.279 4.071-.985 8.407-5.056 9.686-.771.242-1.552.357-2.319.357z" fill="#fdb441"/></g><g><path d="m417.326 407.624c-3.573 0-6.782-2.493-7.551-6.129-6.491-30.691-33.983-52.966-65.37-52.966h-9.042c-31.387 0-58.879 22.276-65.37 52.966-.884 4.175-4.986 6.841-9.158 5.961-4.175-.883-6.843-4.983-5.961-9.158 7.993-37.792 41.843-65.222 80.489-65.222h9.042c38.646 0 72.496 27.43 80.489 65.222.882 4.175-1.786 8.275-5.961 9.158-.54.114-1.077.168-1.607.168z" fill="#fea613"/></g><g><path d="m372.316 407.624c-3.573 0-6.782-2.493-7.551-6.129-2.283-10.791-11.951-18.624-22.988-18.624h-3.787c-11.037 0-20.705 7.832-22.988 18.624-.883 4.175-4.984 6.841-9.158 5.961-4.175-.883-6.843-4.983-5.961-9.158 3.785-17.893 19.811-30.879 38.107-30.879h3.787c18.296 0 34.322 12.986 38.107 30.879.882 4.175-1.786 8.275-5.961 9.158-.539.114-1.077.168-1.607.168z" fill="#fea613"/></g><path d="m493.972 435.938h-475.944c-9.957 0-18.028-8.072-18.028-18.029 0-9.957 8.071-18.028 18.028-18.028h475.944c9.957 0 18.028 8.071 18.028 18.028 0 9.957-8.072 18.029-18.028 18.029z" fill="#99e6fc"/><path d="m429.033 344.145c-8.256-87.033-81.549-155.116-170.743-155.116h-16.384c-58.886 0-110.822 29.688-141.705 74.901l-.002-.021c-8.927 11.635-14.808 27.883-14.808 44.964v.395c0 9.91 8.13 17.852 18.039 17.543 1.156.002 2.312.004 3.467.006 9.711-.152 18.092-6.902 20.29-16.392l3.311-14.296c1.637-7.07 7.935-12.076 15.193-12.076h64.455c5.942 0 10.758 4.817 10.758 10.758v52.941c0 11.259 8.755 20.848 20.007 21.248 11.813.42 21.521-9.032 21.521-20.75v-37.217c0-13.663 11.181-25.174 24.841-24.915 13.242.251 23.899 11.064 23.899 24.366 0 .458 0 21.871 0 21.458 0 11.447 9.28 20.727 20.727 20.727h.149c11.131 0 20.244-8.853 20.565-19.98.242-8.398 7.689-14.746 16.019-13.658 6.823.892 12.027 6.553 12.334 13.434l.417 9.335c.493 11.037 7.22 20.375 16.69 24.677 5.547 2.519 11.925 2.471 17.534.092 8.871-3.763 14.336-12.832 13.426-22.424z" fill="#e94444"/><circle cx="171.38" cy="209.648" fill="#dc8758" r="31.128"/><circle cx="278.721" cy="255.486" fill="#dc8758" r="31.128"/><path d="m493.972 399.881h-29.202c9.957 0 18.028 8.072 18.028 18.028 0 9.957-8.072 18.028-18.028 18.028h29.202c9.957 0 18.028-8.071 18.028-18.028 0-9.956-8.072-18.028-18.028-18.028z" fill="#62dbfb"/><g><path d="m429.033 344.145c-8.256-87.033-81.549-155.116-170.743-155.116-17.931 0-19.388-.068-25.629.264 84.889 4.593 153.366 70.903 161.329 154.853.558 5.881-1.289 11.559-4.839 15.944 2.522 2.666 5.542 4.852 8.922 6.387 5.547 2.519 11.925 2.471 17.534.092 8.871-3.764 14.336-12.832 13.426-22.424z" fill="#d83131"/></g></g></svg>