<?xml version="1.0" encoding="iso-8859-1"?>
<!-- Generator: Adobe Illustrator 19.0.0, SVG Export Plug-In . SVG Version: 6.00 Build 0)  -->
<svg version="1.1" id="Layer_1" xmlns="http://www.w3.org/2000/svg" xmlns:xlink="http://www.w3.org/1999/xlink" x="0px" y="0px"
	 viewBox="0 0 511.999 511.999" style="enable-background:new 0 0 511.999 511.999;" xml:space="preserve">
<path style="fill:#F7931E;" d="M345.044,55.618C323.135,26.459,288.259,7.71,248.977,7.71c-31.527,0-60.217,11.983-81.643,31.856
	l1.585,31.857h176.127L345.044,55.618z"/>
<path style="fill:#8CC63F;" d="M329.034,83.994V62.876c0-3.877,3.143-7.02,7.02-7.02h1.971c3.877,0,7.02-3.143,7.02-7.02v-1.971
	c0-3.877,3.143-7.02,7.02-7.02h9.977c3.877,0,7.02,3.143,7.02,7.02v1.971c0,3.877,3.143,7.02,7.02,7.02l0,0
	c4.568,0,7.918,4.292,6.811,8.723l-13.831,55.323"/>
<path style="fill:#795A37;" d="M272.994,135.913V63.77c0-7.979,7.637-13.738,15.307-11.547l32.023,9.15
	c5.156,1.472,8.71,6.185,8.71,11.547v2.95c0,6.632,5.377,12.009,12.009,12.009l0,0c6.632,0,12.009,5.377,12.009,12.009v20.015"/>
<path style="fill:#C69C6D;" d="M297.001,63.77c0-3.205,1.272-6.016,3.244-8.133l-12.456-3.414
	c-7.672-2.192-15.815,3.569-15.815,11.547v72.143l25.027-4.803V63.77z"/>
<path style="fill:#8CC63F;" d="M128.89,119.902V71.868c0-4.422,3.584-8.006,8.006-8.006l0,0c4.422,0,8.006-3.584,8.006-8.006V47.85
	c0-4.422,3.584-8.006,8.006-8.006h16.011c4.422,0,8.006,3.584,8.006,8.006v8.006c0,4.422,3.584,8.006,8.006,8.006h24.017v56.041
	H128.89V119.902z"/>
<path style="fill:#F15A24;" d="M271.973,71.868L248.466,47.85L232.71,71.868c0.351,1.132,0.127,72.052,0.127,72.052l23.571,24.017
	l15.565-32.023V71.868z"/>
<path style="fill:#FF1D25;" d="M172.257,119.919c-2.271-5.191-3.473-10.956-3.327-17.018c0.513-21.284,18.81-39.084,40.1-39.04
	c22.069,0.045,39.946,17.949,39.946,40.028c0,16.415-9.88,30.521-24.018,36.699"/>
<circle style="fill:#FF4A51;" cx="208.949" cy="103.885" r="16.011"/>
<path style="fill:#F9A94B;" d="M248.606,159.929c15.124-24.098,41.509-40.027,72.423-40.027h48.035v335.445
	c0,26.969-21.863,48.832-48.832,48.832H177.722c-26.969,0-48.832-21.863-48.832-48.832V119.902h44.032
	c48.636,0,88.063,39.428,88.063,88.063v80.058"/>
<path style="fill:#F7931E;" d="M248.977,504.179h-71.254c-26.969,0-48.832-21.863-48.832-48.832V119.902h44.032
	c48.636,0,88.063,39.428,88.063,88.063v80.058"/>
<path style="fill:#B96E16;" d="M176.925,504.179h-2.949c-24.9,0-45.086-20.186-45.086-45.086V119.902h48.035V504.179z"/>
<path style="fill:#F2F2F2;" d="M323.549,504.179H174.405c-25.137,0-45.515-20.378-45.515-45.515V256l240.173,64.046v138.618
	C369.063,483.801,348.686,504.179,323.549,504.179z"/>
<polygon style="fill:#B3B3B3;" points="129.108,376.086 217.171,384.092 129.108,416.116 "/>
<polygon style="fill:#FFFFFF;" points="369.063,352.069 128.89,288.023 128.89,256 369.063,320.046 "/>
<polygon style="fill:#CCCCCC;" points="368.955,344.063 129.108,408.11 129.108,440.133 368.955,400.103 "/>
<polygon style="fill:#B3B3B3;" points="368.955,400.103 368.955,464.15 224.851,424.121 "/>
<g>
	<rect x="201.065" y="79.765" style="fill:#FFFFFF;" width="15.642" height="16.685"/>
	<rect x="217.75" y="96.45" style="fill:#FFFFFF;" width="15.642" height="14.599"/>
	<rect x="184.38" y="96.45" style="fill:#FFFFFF;" width="15.642" height="14.599"/>
</g>
<rect x="313.689" y="168.404" width="15.642" height="15.642"/>
<rect x="329.331" y="185.089" width="15.642" height="15.642"/>
<rect x="305.346" y="232.015" width="23.985" height="15.642"/>
<rect x="288.661" y="248.7" width="16.685" height="15.642"/>
<rect x="168.738" y="200.731" width="32.327" height="15.642"/>
<rect x="201.065" y="145.462" width="15.642" height="15.642"/>
<rect x="192.723" y="232.015" width="15.642" height="15.642"/>
<rect x="208.365" y="31.795" width="16.685" height="15.642"/>
<path d="M387.783,53.742c-2.668-3.416-6.604-5.46-10.897-5.688v-1.191c0-8.183-6.658-14.841-14.841-14.841h-9.977
	c-4.914,0-9.265,2.411-11.967,6.1C316.177,13.719,283.798,0,248.976,0c-31.325,0-61.263,11.349-84.657,32.023h-11.413
	c-8.726,0-15.827,7.099-15.827,15.827v8.006c0,0.102-0.082,0.185-0.185,0.185c-8.727,0-15.828,7.099-15.828,15.827v40.214v7.821
	v335.445c0,31.238,25.414,56.653,56.653,56.653h142.509c31.24,0,56.654-25.414,56.654-56.653v-334.48l13.597-54.39
	C391.598,62.012,390.614,57.37,387.783,53.742z M240.689,15.949v8.547h16.685v-8.536c12.399,0.904,24.344,3.822,35.485,8.536h-4.2
	v15.642h16.685v-9.417c8.779,5.106,16.887,11.434,24.103,18.885c-2.204,1.103-4.097,2.732-5.51,4.731
	c-0.479-0.178-0.966-0.343-1.462-0.485l-32.023-9.15c-6.037-1.726-12.377-0.545-17.39,3.236c-2.534,1.911-4.52,4.332-5.866,7.068
	L247.76,35.573l-17.126,25.691c-6.488-3.317-13.82-5.208-21.587-5.223c-0.031,0-0.062,0-0.092,0c-0.002,0-0.005,0-0.007,0l0,0
	h-24.017c-0.102,0-0.186-0.083-0.186-0.185V47.85c0-3.625-1.238-6.959-3.296-9.63C198.645,25.248,219.14,17.528,240.689,15.949z
	 M261.063,426.033l100.18-16.696v44.524L261.063,426.033z M136.711,414.119l224.531-59.875v39.235l-224.531,37.421V414.119z
	 M361.242,152.762h-7.93v15.642h7.93v111.581H344.97v15.642h16.272v14.239l-92.437-24.65v-77.251c0-16.8-4.341-32.6-11.963-46.346
	c14.485-21.281,38.261-33.897,64.185-33.897h40.214v25.039H361.242z M243.231,70.568l6.962-10.442l14.98,14.981v55.449
	c-6.544,4.896-12.478,10.68-17.62,17.27c-2.231-2.762-4.611-5.397-7.13-7.895c10.23-8.94,16.375-21.995,16.375-36.042
	C256.797,90.951,251.616,79.194,243.231,70.568z M345.231,112.08h-24.203c-14.215,0-27.889,3.165-40.214,9.03v-9.018h7.843V96.45
	h-7.843V63.77c0-1.816,1.044-2.874,1.666-3.343c0.623-0.469,1.929-1.182,3.672-0.684l32.023,9.15
	c1.788,0.511,3.038,2.167,3.038,4.026v2.95c0,1.707,0.24,3.356,0.648,4.938h-8.176v15.642h29.738
	c1.09,0.757,1.807,2.014,1.807,3.438v12.194H345.231z M208.953,71.683c0.021,0,0.042,0,0.062,0
	c17.723,0.035,32.141,14.485,32.141,32.207c0,10.295-4.907,19.796-12.926,25.795c-14.388-10.196-31.695-16.524-50.4-17.472
	c-0.787-2.948-1.155-5.999-1.079-9.121C177.161,86.051,191.901,71.683,208.953,71.683z M136.711,71.868
	c0-0.102,0.083-0.185,0.186-0.185c8.726,0,15.827-7.101,15.827-15.827V47.85c0-0.102,0.082-0.185,0.185-0.185h16.011
	c0.102,0,0.185,0.082,0.185,0.185v8.006c0,5.619,2.951,10.549,7.376,13.358c-9.12,8.555-15.054,20.5-15.368,33.498
	c-0.077,3.175,0.168,6.302,0.697,9.368H136.71V71.868H136.711z M136.711,240.358h15.339v-15.642h-15.339v-23.985h32.024v-15.642
	h-32.024v-23.985h9.082v-15.642h-9.082v-17.739h36.212c44.245,0,80.241,35.997,80.241,80.242V248.7h-20.818v15.642h20.818v16.703
	l-116.453-31.054L136.711,240.358L136.711,240.358z M361.242,326.055v12L136.711,397.93V266.181L361.242,326.055z M320.23,496.358
	H177.722c-22.614,0-41.011-18.397-41.011-41.011v-8.589l87.826-14.638l134.224,37.285
	C353.009,485.115,337.908,496.358,320.23,496.358z M362.956,112.08h-2.084V99.888c0-10.934-8.895-19.83-19.83-19.83
	c-2.309,0-4.188-1.878-4.188-4.188v-2.95v-9.243h1.17c8.184,0,14.84-6.658,14.84-14.841v-1.17h8.376v1.17
	c0,7.842,6.113,14.282,13.824,14.807L362.956,112.08z"/>
<g>
	<rect x="168.738" y="465.605" style="fill:#FFFFFF;" width="96.982" height="15.642"/>
	<rect x="280.319" y="465.605" style="fill:#FFFFFF;" width="25.027" height="15.642"/>
</g>
<g>
</g>
<g>
</g>
<g>
</g>
<g>
</g>
<g>
</g>
<g>
</g>
<g>
</g>
<g>
</g>
<g>
</g>
<g>
</g>
<g>
</g>
<g>
</g>
<g>
</g>
<g>
</g>
<g>
</g>
</svg>
